<svg width="70" height="70" viewBox="0 0 70 70" fill="none" xmlns="http://www.w3.org/2000/svg">
<path fill-rule="evenodd" clip-rule="evenodd" d="M67 20.3604L37 32L45.1209 2C54.7571 4.85601 62.7655 11.5768 67 20.3604Z" fill="#CEE2FF"/>
<path fill-rule="evenodd" clip-rule="evenodd" d="M34.8029 0C37.2306 0 39.6444 0.245962 42 0.73256L33.8127 32L7 13.595C13.6119 5.05338 23.8864 0 34.8029 0Z" fill="#A2C6FB"/>
<path fill-rule="evenodd" clip-rule="evenodd" d="M0 34.7456C0 28.0582 1.82068 21.6119 5.27999 16L33 35.6048V70C14.66 69.14 0 53.6559 0 34.7456Z" fill="#78ACF8"/>
<path fill-rule="evenodd" clip-rule="evenodd" d="M37 70V35.8355L68.0453 23C69.343 26.7559 70 30.6941 70 34.729C70 53.6481 55.34 69.1395 37 70Z" fill="#266FF2"/>
</svg>
