<svg width="70" height="70" viewBox="0 0 70 70" fill="none" xmlns="http://www.w3.org/2000/svg">
<rect x="2" y="55" width="24" height="10" fill="#0051D6"/>
<rect x="2" y="38" width="33" height="10" fill="#0051D6"/>
<rect x="2" y="21" width="45" height="10" fill="#0051D6"/>
<rect x="2" y="5" width="60" height="10" fill="#0051D6"/>
<rect x="2" y="55" width="21" height="10" fill="#78ACF8"/>
<rect x="2" y="38" width="21" height="10" fill="#78ACF8"/>
<rect x="2" y="21" width="38" height="10" fill="#78ACF8"/>
<rect x="2" y="5" width="40" height="10" fill="#78ACF8"/>
<rect x="2" y="55" width="10" height="10" fill="#CEE2FF"/>
<rect x="2" y="38" width="3" height="10" fill="#CEE2FF"/>
<rect x="2" y="21" width="21" height="10" fill="#CEE2FF"/>
<rect x="2" y="5" width="26" height="10" fill="#CEE2FF"/>
<rect width="2" height="70" fill="#5C6570"/>
<rect x="14" y="66" width="2" height="4" fill="#5C6570"/>
<rect x="28" y="66" width="2" height="4" fill="#5C6570"/>
<rect x="42" y="66" width="2" height="4" fill="#5C6570"/>
<rect x="56" y="66" width="2" height="4" fill="#5C6570"/>
<rect y="68" width="70" height="2" fill="#5C6570"/>
</svg>
