<svg width="70" height="70" viewBox="0 0 70 70" fill="none" xmlns="http://www.w3.org/2000/svg">
<rect x="57" y="68" width="61" height="10" transform="rotate(-90 57 68)" fill="#0051D6"/>
<rect x="40" y="68" width="45" height="10" transform="rotate(-90 40 68)" fill="#0051D6"/>
<rect x="23" y="68" width="28" height="10" transform="rotate(-90 23 68)" fill="#0051D6"/>
<rect x="7" y="68" width="22" height="10" transform="rotate(-90 7 68)" fill="#0051D6"/>
<rect x="57" y="68" width="53" height="10" transform="rotate(-90 57 68)" fill="#78ACF8"/>
<rect x="40" y="68" width="29" height="10" transform="rotate(-90 40 68)" fill="#78ACF8"/>
<rect x="23" y="68" width="24" height="10" transform="rotate(-90 23 68)" fill="#78ACF8"/>
<rect x="7" y="68" width="15" height="10" transform="rotate(-90 7 68)" fill="#78ACF8"/>
<rect x="57" y="68" width="25" height="10" transform="rotate(-90 57 68)" fill="#CEE2FF"/>
<rect x="40" y="68" width="4" height="10" transform="rotate(-90 40 68)" fill="#CEE2FF"/>
<rect x="23" y="68" width="13" height="10" transform="rotate(-90 23 68)" fill="#CEE2FF"/>
<rect x="7" y="68" width="10" height="10" transform="rotate(-90 7 68)" fill="#CEE2FF"/>
<rect y="70" width="2" height="70" transform="rotate(-90 0 70)" fill="#5C6570"/>
<rect y="56" width="2" height="4" transform="rotate(-90 0 56)" fill="#5C6570"/>
<rect y="42" width="2" height="4" transform="rotate(-90 0 42)" fill="#5C6570"/>
<rect y="28" width="2" height="4" transform="rotate(-90 0 28)" fill="#5C6570"/>
<rect y="14" width="2" height="4" transform="rotate(-90 0 14)" fill="#5C6570"/>
<rect y="70" width="70" height="2" transform="rotate(-90 0 70)" fill="#5C6570"/>
</svg>
