<svg width="70" height="70" viewBox="0 0 70 70" fill="none" xmlns="http://www.w3.org/2000/svg">
<path fill-rule="evenodd" clip-rule="evenodd" d="M66.5008 50.2338L54.4343 44.5327C55.8992 41.5668 56.6666 38.2929 56.6666 34.9611C56.6666 32.5931 56.2872 30.2742 55.5372 28.0526L65.6113 17.9784C68.4881 23.1549 70 28.9839 70 34.9611C69.9999 40.2553 68.7939 45.5026 66.5008 50.2338Z" fill="#78ACF8"/>
<path fill-rule="evenodd" clip-rule="evenodd" d="M21.8813 53.9824L22.6423 52.7487C24.6572 54.1513 26.8977 55.2035 29.2537 55.8525L26.4942 68.9213C22.6108 67.9554 18.968 66.3445 15.6294 64.1167L21.8813 53.9824Z" fill="#CEE2FF"/>
<path fill-rule="evenodd" clip-rule="evenodd" d="M63.8042 15.0716L54.1138 24.7617C52.4952 21.732 50.1788 19.1286 47.3185 17.1453C44.144 14.9438 40.4911 13.6495 36.6665 13.3578V0C47.5996 0.511959 57.5668 6.04154 63.8042 15.0716Z" fill="#A2C6FB"/>
<path fill-rule="evenodd" clip-rule="evenodd" d="M33.3333 0.00134277V13.359C25.49 13.9681 18.5347 18.8395 15.2729 26.0036L12.2362 24.7799L2.88904 21.0134C8.18008 8.86382 20.0956 0.642227 33.3333 0.00134277Z" fill="#CEE2FF"/>
<path fill-rule="evenodd" clip-rule="evenodd" d="M0 34.9611C0 31.2522 0.573801 27.6171 1.70748 24.1313L14.1288 29.1365C13.6005 31.0239 13.3332 32.9766 13.3332 34.9612C13.3332 40.9068 15.7602 46.5358 20.0389 50.6201L12.9375 62.1318C4.80484 55.5133 0 45.4876 0 34.9611Z" fill="#E9F2FF"/>
<path fill-rule="evenodd" clip-rule="evenodd" d="M29.764 69.5717L32.527 56.4866C33.1339 56.5561 33.7452 56.6001 34.3577 56.6182L36.3425 69.9356C34.137 70.0194 31.93 69.8962 29.764 69.5717Z" fill="#003EA3"/>
<path fill-rule="evenodd" clip-rule="evenodd" d="M39.6701 69.6526L37.7036 56.4582C40.2058 56.1432 42.6393 55.3913 44.8818 54.239L49.6615 62.6294L51.4913 65.8414C47.7947 67.824 43.8308 69.1021 39.6701 69.6526Z" fill="#0051D6"/>
<path fill-rule="evenodd" clip-rule="evenodd" d="M54.3524 64.1293L47.7217 52.4894C49.6497 51.0853 51.347 49.362 52.7227 47.4109L64.9005 53.1643C62.2281 57.5439 58.625 61.2896 54.3524 64.1293Z" fill="#266FF2"/>
</svg>
