<svg width="620" height="146" viewBox="0 0 620 146" fill="none" xmlns="http://www.w3.org/2000/svg">
<path fill-rule="evenodd" clip-rule="evenodd" d="M82.7886 0H61.9078C42.5686 0 34.1984 2.47638 26.2735 6.74969C17.8088 11.3206 11.2195 17.9692 6.68943 26.5102C2.45427 34.5065 0 42.9521 0 62.4655V83.5345C0 103.048 2.45427 111.493 6.68943 119.49C11.2195 128.031 17.8088 134.679 26.2735 139.25C34.1984 143.524 42.5686 146 61.9078 146H82.7886C102.128 146 110.498 143.524 118.423 139.25C126.888 134.679 133.477 128.031 138.007 119.49C142.242 111.493 144.696 103.048 144.696 83.5345V62.4655C144.696 42.9521 142.242 34.5065 138.007 26.5102C133.477 17.9692 126.888 11.3206 118.423 6.74969C110.498 2.47638 102.128 0 82.7886 0M82.7895 8.60815C100.359 8.60815 107.466 10.6016 114.4 14.3415C121.334 18.0869 126.772 23.5732 130.484 30.5699C134.19 37.5667 136.166 44.7375 136.166 62.4653V83.5342C136.166 101.262 134.19 108.433 130.484 115.43C126.772 122.426 121.334 127.913 114.4 131.658C107.466 135.398 100.359 137.391 82.7895 137.391H61.9087C44.3392 137.391 37.2324 135.398 30.2981 131.658C23.3638 127.913 17.9265 122.426 14.2145 115.43C10.5081 108.433 8.53241 101.262 8.53241 83.5342V62.4653C8.53241 44.7375 10.5081 37.5667 14.2145 30.5699C17.9265 23.5732 23.3638 18.0869 30.2981 14.3415C37.2324 10.6016 44.3392 8.60815 61.9087 8.60815H82.7895" fill="#266FF2"/>
<path fill-rule="evenodd" clip-rule="evenodd" d="M217.459 81.8422C213.653 80.3541 208.371 79.2422 202.6 79.2422C193.267 79.2422 187.746 83.0832 187.746 89.4005V89.6476C187.746 95.8413 193.267 99.3116 200.268 99.3116C210.091 99.3116 217.459 93.7356 217.459 85.5596V81.8422ZM217.092 109.221V101.169C212.673 106.498 205.917 110.586 196.094 110.586C183.817 110.586 173.01 103.521 173.01 90.387V90.1399C173.01 75.641 184.185 68.706 199.283 68.706C207.141 68.706 212.178 69.8235 217.215 71.4295V70.1941C217.215 61.1477 211.566 56.1949 201.248 56.1949C194.007 56.1949 188.604 57.8009 182.71 60.2829L178.658 48.266C185.782 45.0428 192.778 42.8135 203.34 42.8135C222.496 42.8135 231.829 52.9717 231.829 70.4412V109.221H217.092Z" fill="#266FF2"/>
<path fill-rule="evenodd" clip-rule="evenodd" d="M240.48 100.671L247.109 90.5128C254.11 95.8418 261.723 98.5652 268.357 98.5652C274.74 98.5652 278.424 95.8418 278.424 91.5011V91.254C278.424 86.1721 271.551 84.4425 263.932 82.0841C254.36 79.3606 243.675 75.3961 243.675 62.8851V62.638C243.675 50.2448 253.865 42.6865 266.76 42.6865C274.863 42.6865 283.706 45.5391 290.579 50.1213L284.685 60.7793C278.424 56.9328 271.791 54.5799 266.392 54.5799C260.621 54.5799 257.304 57.309 257.304 61.1443V61.397C257.304 66.1027 264.305 68.0849 271.913 70.5669C281.374 73.5374 292.054 77.8725 292.054 89.648V89.8951C292.054 103.647 281.496 110.459 267.984 110.459C258.779 110.459 248.589 107.112 240.48 100.671" fill="#266FF2"/>
<path fill-rule="evenodd" clip-rule="evenodd" d="M303.691 18.7734H318.545V72.7934L345.436 43.8012H363.49L337.701 70.4406L364.347 109.22H347.162L327.633 80.9694L318.545 90.51V109.22H303.691V18.7734Z" fill="#266FF2"/>
<path fill-rule="evenodd" clip-rule="evenodd" d="M417.753 76.6364V76.3893C417.753 63.7491 408.91 55.4495 398.965 55.4495C388.775 55.4495 380.305 63.3784 380.305 76.3893V76.6364C380.305 89.271 388.898 97.5761 398.965 97.5761C408.91 97.5761 417.753 89.1531 417.753 76.6364M365.325 76.6368V76.3897C365.325 54.7087 379.934 42.4391 395.405 42.4391C406.091 42.4391 412.841 47.8916 417.511 53.9619V18.7759H432.364V109.223H417.511V98.3178C412.719 105.135 405.968 110.582 395.405 110.582C380.179 110.582 365.325 98.3178 365.325 76.6368" fill="#266FF2"/>
<path fill-rule="evenodd" clip-rule="evenodd" d="M487.85 81.8422C484.043 80.3541 478.762 79.2422 472.991 79.2422C463.658 79.2422 458.137 83.0832 458.137 89.4005V89.6476C458.137 95.8413 463.658 99.3116 470.659 99.3116C480.481 99.3116 487.85 93.7356 487.85 85.5596V81.8422ZM487.483 109.221V101.169C483.064 106.498 476.308 110.586 466.485 110.586C454.208 110.586 443.4 103.521 443.4 90.387V90.1399C443.4 75.641 454.575 68.706 469.674 68.706C477.532 68.706 482.569 69.8235 487.605 71.4295V70.1941C487.605 61.1477 481.956 56.1949 471.638 56.1949C464.398 56.1949 458.994 57.8009 453.101 60.2829L449.049 48.266C456.173 45.0428 463.168 42.8135 473.725 42.8135C492.887 42.8135 502.219 52.9717 502.219 70.4412V109.221H487.483Z" fill="#266FF2"/>
<path fill-rule="evenodd" clip-rule="evenodd" d="M519.678 91.1311V56.6864H511.452V43.7991H519.678V25.8354H534.537V43.7991H551.973V56.6864H534.537V88.7783C534.537 94.6015 537.481 96.9543 542.517 96.9543C545.834 96.9543 548.778 96.2131 551.728 94.725V106.989C548.044 109.095 543.87 110.336 538.343 110.336C527.413 110.336 519.678 105.507 519.678 91.1311" fill="#266FF2"/>
<path fill-rule="evenodd" clip-rule="evenodd" d="M604.872 81.8422C601.065 80.3541 595.784 79.2422 590.013 79.2422C580.68 79.2422 575.153 83.0832 575.153 89.4005V89.6476C575.153 95.8413 580.68 99.3116 587.681 99.3116C597.504 99.3116 604.872 93.7356 604.872 85.5596V81.8422ZM604.503 109.221V101.169C600.079 106.498 593.328 110.586 583.506 110.586C571.223 110.586 560.421 103.521 560.421 90.387V90.1399C560.421 75.641 571.596 68.706 586.694 68.706C594.553 68.706 599.589 69.8235 604.626 71.4295V70.1941C604.626 61.1477 598.977 56.1949 588.659 56.1949C581.419 56.1949 576.015 57.8009 570.121 60.2829L566.064 48.266C573.188 45.0428 580.189 42.8135 590.746 42.8135C609.902 42.8135 619.24 52.9717 619.24 70.4412V109.221H604.503Z" fill="#266FF2"/>
<path fill-rule="evenodd" clip-rule="evenodd" d="M64.5844 100.759V74.8047H27.7759L81.1299 45.5093V70.6999H117.187L64.5844 100.759Z" fill="#266FF2"/>
</svg>
