<svg id="Layer_1" data-name="Layer 1" xmlns="http://www.w3.org/2000/svg" viewBox="0 0 1124.82 388.88"><defs><style>.cls-1{fill-rule:evenodd;}</style></defs><title>black-nobkg</title><path d="M209.48,97.22c26.76,0,37.6,3,48.16,8.66a58.87,58.87,0,0,1,24.5,24.5c5.65,10.56,8.65,21.39,8.65,48.15v31.81c0,26.77-3,37.6-8.65,48.16a58.93,58.93,0,0,1-24.5,24.5c-10.56,5.65-21.4,8.66-48.16,8.66H177.67c-26.77,0-37.6-3-48.16-8.66A58.93,58.93,0,0,1,105,258.5c-5.65-10.56-8.66-21.39-8.66-48.16V178.53c0-26.76,3-37.59,8.66-48.15a58.87,58.87,0,0,1,24.5-24.5c10.56-5.65,21.39-8.66,48.16-8.66h31.81m0-13H177.67c-29.46,0-42.22,3.74-54.29,10.19a71.53,71.53,0,0,0-29.83,29.84c-6.46,12.07-10.2,24.82-10.2,54.28v31.81c0,29.47,3.74,42.22,10.2,54.29a71.53,71.53,0,0,0,29.83,29.84c12.07,6.45,24.83,10.19,54.29,10.19h31.81c29.46,0,42.22-3.74,54.29-10.19a71.53,71.53,0,0,0,29.83-29.84c6.46-12.07,10.19-24.82,10.19-54.29V178.53c0-29.46-3.73-42.21-10.19-54.28a71.53,71.53,0,0,0-29.83-29.84C251.7,88,238.94,84.22,209.48,84.22Z"/><path d="M414.08,249.13V237c-6.73,8-17,14.22-32,14.22-18.7,0-35.17-10.67-35.17-30.5v-.37c0-21.89,17-32.36,40-32.36a83.2,83.2,0,0,1,27.31,4.11V190.2c0-13.66-8.61-21.14-24.32-21.14-11,0-19.27,2.43-28.25,6.18l-6.17-18.15c10.85-4.86,21.51-8.23,37.6-8.23,29.18,0,43.4,15.34,43.4,41.71v58.56Zm.56-41.34A64.52,64.52,0,0,0,392,203.86c-14.22,0-22.64,5.8-22.64,15.34v.37c0,9.35,8.42,14.59,19.08,14.59,15,0,26.19-8.42,26.19-20.76Z"/><path d="M449.72,236.22l10.1-15.34c10.66,8,22.26,12.16,32.36,12.16,9.73,0,15.34-4.12,15.34-10.66V222c0-7.67-10.47-10.29-22.07-13.84-14.59-4.12-30.87-10.1-30.87-29v-.37c0-18.71,15.53-30.12,35.17-30.12,12.35,0,25.82,4.3,36.29,11.23l-9,16.08c-9.54-5.8-19.64-9.35-27.87-9.35-8.79,0-13.84,4.12-13.84,9.91v.38c0,7.11,10.66,10.1,22.26,13.84,14.4,4.49,30.68,11,30.68,28.81v.37c0,20.77-16.09,31.06-36.67,31.06A69.35,69.35,0,0,1,449.72,236.22Z"/><path d="M546,112.57h22.64v81.56l41-43.78h27.5l-39.28,40.22,40.59,58.56H612.23l-29.74-42.65-13.84,14.4v28.25H546Z"/><path d="M639.91,199.93v-.38c0-32.73,22.26-51.25,45.83-51.25,16.27,0,26.56,8.23,33.67,17.39V112.57h22.64V249.13H719.41V232.67c-7.29,10.28-17.58,18.52-33.67,18.52C662.54,251.19,639.91,232.67,639.91,199.93Zm79.88,0v-.38c0-19.08-13.47-31.61-28.63-31.61-15.52,0-28.43,12-28.43,31.61v.38c0,19.08,13.1,31.61,28.43,31.61C706.32,231.54,719.79,218.82,719.79,199.93Z"/><path d="M826,249.13V237c-6.73,8-17,14.22-32,14.22-18.71,0-35.17-10.67-35.17-30.5v-.37c0-21.89,17-32.36,40-32.36a83.2,83.2,0,0,1,27.31,4.11V190.2c0-13.66-8.6-21.14-24.32-21.14-11,0-19.27,2.43-28.25,6.18l-6.17-18.15c10.85-4.86,21.51-8.23,37.6-8.23,29.19,0,43.4,15.34,43.4,41.71v58.56Zm.57-41.34a64.58,64.58,0,0,0-22.64-3.93c-14.22,0-22.64,5.8-22.64,15.34v.37c0,9.35,8.42,14.59,19.09,14.59,15,0,26.19-8.42,26.19-20.76Z"/><path d="M875.06,221.82v-52H862.53V150.35h12.53V123.23H897.7v27.12h26.56v19.46H897.7v48.45c0,8.79,4.49,12.35,12.16,12.35a30.37,30.37,0,0,0,14-3.37v18.52a39.67,39.67,0,0,1-20.39,5.05C886.85,250.81,875.06,243.52,875.06,221.82Z"/><path d="M1004.29,249.13V237c-6.74,8-17,14.22-32,14.22-18.71,0-35.17-10.67-35.17-30.5v-.37c0-21.89,17-32.36,40-32.36a83.2,83.2,0,0,1,27.31,4.11V190.2c0-13.66-8.6-21.14-24.31-21.14-11,0-19.27,2.43-28.25,6.18l-6.18-18.15c10.85-4.86,21.52-8.23,37.61-8.23,29.18,0,43.4,15.34,43.4,41.71v58.56Zm.56-41.34a64.54,64.54,0,0,0-22.64-3.93c-14.21,0-22.63,5.8-22.63,15.34v.37c0,9.35,8.42,14.59,19.08,14.59,15,0,26.19-8.42,26.19-20.76Z"/><polygon class="cls-1" points="181.75 236.35 181.75 197.16 125.67 197.16 206.96 152.93 206.96 190.97 261.89 190.97 181.75 236.35"/></svg>